<svg width="380" height="380" viewBox="0 0 380 380" fill="none" xmlns="http://www.w3.org/2000/svg">
<rect width="380" height="380" fill="#F3F7FA"/>
<path opacity="0.5" d="M89.7056 154.474C102.798 154.474 113.411 143.847 113.411 130.737C113.411 117.628 102.798 107 89.7056 107C76.6134 107 66 117.628 66 130.737C66 143.847 76.6134 154.474 89.7056 154.474Z" fill="url(#paint0_linear)"/>
<path opacity="0.5" d="M260.643 235.426C290.583 235.426 314.855 211.124 314.855 181.147C314.855 151.169 290.583 126.868 260.643 126.868C230.703 126.868 206.432 151.169 206.432 181.147C206.432 211.124 230.703 235.426 260.643 235.426Z" fill="url(#paint1_linear)"/>
<path opacity="0.5" d="M137.826 272C167.766 272 192.037 247.698 192.037 217.721C192.037 187.743 167.766 163.442 137.826 163.442C107.886 163.442 83.6144 187.743 83.6144 217.721C83.6144 247.698 107.886 272 137.826 272Z" fill="url(#paint2_linear)"/>
<path d="M213.801 189.843C206.802 194.607 198.801 198.012 190.421 199.763C186.239 200.685 181.959 201.132 177.674 201.254C173.389 201.299 169.09 201.064 164.846 200.373C160.615 199.646 156.443 198.576 152.401 197.14L149.408 195.966C148.419 195.555 147.453 195.086 146.473 194.652C145.488 194.228 144.549 193.708 143.601 193.212L142.183 192.458C141.718 192.196 141.266 191.907 140.806 191.636L139.433 190.805L138.747 190.39L138.083 189.943C137.198 189.338 136.313 188.746 135.442 188.127L132.909 186.168C132.48 185.852 132.082 185.495 131.676 185.147L130.466 184.1C127.296 181.255 124.366 178.153 121.805 174.78C124.745 177.828 127.851 180.682 131.175 183.251L132.425 184.208C132.841 184.524 133.252 184.854 133.69 185.138L136.282 186.913L138.95 188.565L139.618 188.976L140.305 189.356L141.677 190.11C145.362 192.065 149.159 193.817 153.115 195.135C157.061 196.467 161.107 197.488 165.211 198.161C169.316 198.874 173.484 199.104 177.647 199.136L179.209 199.127L180.771 199.064C181.814 199.041 182.848 198.928 183.891 198.86C185.964 198.653 188.041 198.418 190.095 198.052C198.331 196.648 206.324 193.803 213.801 189.843Z" fill="black"/>
<path d="M106.083 114.067C107.478 115.34 108.733 116.785 109.812 118.365C110.878 119.955 111.763 121.679 112.436 123.495C113.754 127.134 114.219 131.13 113.7 135.063L111.479 134.661C112.305 131.157 112.264 127.405 111.361 123.829C110.896 122.045 110.214 120.307 109.334 118.659C108.435 117.015 107.343 115.475 106.083 114.067Z" fill="black"/>
<path d="M112.413 157.938C110.887 150.347 110.58 142.45 111.546 134.643L113.772 135.027C112.102 142.464 111.632 150.235 112.413 157.938Z" fill="black"/>
<path d="M176.174 149.182C166.345 158.687 153.449 164.083 138.697 164.083C138.169 164.083 137.64 164.074 137.117 164.061" stroke="black" stroke-width="2" stroke-miterlimit="10" stroke-linecap="square" stroke-linejoin="bevel"/>
<path d="M175.75 147.837L177.516 146.157L178.401 145.322L179.322 144.527L181.168 142.942L183.087 141.448C183.408 141.199 183.724 140.946 184.049 140.707L185.043 140.007C185.706 139.542 186.361 139.068 187.034 138.617L189.084 137.316C189.427 137.104 189.761 136.874 190.113 136.675L191.17 136.074C191.874 135.677 192.574 135.266 193.288 134.887L195.455 133.794C195.816 133.618 196.173 133.419 196.543 133.257L197.654 132.765C198.395 132.44 199.126 132.101 199.876 131.794L202.138 130.922C202.517 130.782 202.887 130.624 203.271 130.498L204.423 130.119C205.19 129.87 205.953 129.608 206.725 129.374L209.06 128.737C209.448 128.633 209.836 128.52 210.229 128.425L211.412 128.168L213.774 127.653L216.158 127.256L217.35 127.057C217.747 127.003 218.149 126.962 218.547 126.917L220.944 126.642C221.743 126.57 222.547 126.533 223.351 126.479C224.954 126.344 226.561 126.371 228.169 126.344C231.397 126.339 234.581 126.795 237.746 127.256C240.911 127.739 244.063 128.312 247.196 128.954C244.045 128.407 240.879 127.929 237.71 127.536C234.54 127.166 231.348 126.809 228.173 126.908C226.579 126.98 224.985 127.003 223.405 127.184C222.615 127.26 221.82 127.319 221.03 127.414L218.668 127.753C218.276 127.811 217.883 127.861 217.49 127.929L216.32 128.159L213.982 128.62L211.67 129.197L210.514 129.486C210.13 129.595 209.755 129.717 209.371 129.83L207.096 130.525C206.346 130.778 205.601 131.058 204.856 131.324L203.736 131.726C203.361 131.862 203.005 132.029 202.634 132.178L200.444 133.094C199.722 133.419 199.013 133.772 198.295 134.11L197.225 134.62C196.868 134.792 196.525 134.991 196.177 135.176L194.091 136.305C193.405 136.697 192.737 137.122 192.059 137.528L191.044 138.142C190.705 138.35 190.384 138.58 190.055 138.797L188.09 140.125C187.449 140.585 186.822 141.068 186.19 141.538L185.241 142.247C184.93 142.491 184.632 142.748 184.325 142.996L182.5 144.505L180.753 146.098L179.882 146.898L179.046 147.733L177.38 149.408L176.585 150.207L174.946 148.609L175.75 147.837Z" fill="black"/>
<path d="M104.846 174.902C109.334 171.267 114.441 168.346 119.913 166.314C125.386 164.277 131.22 163.139 137.112 162.95C137.735 162.927 138.259 163.419 138.277 164.042C138.295 164.666 137.808 165.189 137.185 165.207C137.162 165.207 137.135 165.207 137.112 165.207C131.459 165.022 125.747 165.745 120.27 167.384C114.797 169.023 109.564 171.57 104.846 174.902Z" fill="black"/>
<path d="M272.844 128.416C271.133 137.153 267.814 145.529 263.122 153.016C258.44 160.502 252.403 167.099 245.422 172.396C252.168 166.801 257.862 160.001 262.152 152.438C266.446 144.879 269.322 136.562 270.618 128.032L272.844 128.416Z" fill="black"/>
<path d="M242.099 138.571C242.722 138.571 243.228 138.066 243.228 137.442C243.228 136.819 242.722 136.314 242.099 136.314C241.475 136.314 240.97 136.819 240.97 137.442C240.97 138.066 241.475 138.571 242.099 138.571Z" fill="black"/>
<defs>
<linearGradient id="paint0_linear" x1="72.9327" y1="147.508" x2="106.478" y2="113.962" gradientUnits="userSpaceOnUse">
<stop offset="2.23767e-07" stop-color="#F15A24"/>
<stop offset="0.5987" stop-color="#ED1E79"/>
<stop offset="1" stop-color="#9E005D"/>
</linearGradient>
<linearGradient id="paint1_linear" x1="222.286" y1="219.502" x2="298.999" y2="142.789" gradientUnits="userSpaceOnUse">
<stop offset="3.35651e-07" stop-color="#FFFF00"/>
<stop offset="0.5987" stop-color="#00FF00"/>
<stop offset="1" stop-color="#009245"/>
</linearGradient>
<linearGradient id="paint2_linear" x1="99.4689" y1="256.077" x2="176.182" y2="179.364" gradientUnits="userSpaceOnUse">
<stop offset="2.23767e-07" stop-color="#FF00FF"/>
<stop offset="0.4572" stop-color="#E030EB"/>
<stop offset="1" stop-color="#662D91"/>
</linearGradient>
</defs>
</svg>
