<svg width="766" height="896" viewBox="0 0 766 896" fill="none" xmlns="http://www.w3.org/2000/svg">
<rect width="766" height="896" fill="#F3F7FA"/>
<g opacity="0.5">
<path opacity="0.1" d="M106.385 732.273C165.14 732.273 212.77 684.583 212.77 625.755C212.77 566.927 165.14 519.237 106.385 519.237C47.6303 519.237 0 566.927 0 625.755C0 684.583 47.6303 732.273 106.385 732.273Z" fill="url(#paint0_linear)"/>
<path opacity="0.3" d="M150.5 166C191.645 166 225 132.645 225 91.5C225 50.3548 191.645 17 150.5 17C109.355 17 76 50.3548 76 91.5C76 132.645 109.355 166 150.5 166Z" fill="url(#paint1_linear)"/>
<path opacity="0.2" d="M587.5 560C686.083 560 766 486.127 766 395C766 303.873 686.083 230 587.5 230C488.917 230 409 303.873 409 395C409 486.127 488.917 560 587.5 560Z" fill="url(#paint2_linear)"/>
</g>
<defs>
<linearGradient id="paint0_linear" x1="31.1131" y1="701.025" x2="181.656" y2="550.482" gradientUnits="userSpaceOnUse">
<stop offset="2.23767e-07" stop-color="#FF00FF"/>
<stop offset="0.4572" stop-color="#E030EB"/>
<stop offset="1" stop-color="#662D91"/>
</linearGradient>
<linearGradient id="paint1_linear" x1="97.7876" y1="144.136" x2="203.072" y2="38.7113" gradientUnits="userSpaceOnUse">
<stop offset="2.23767e-07" stop-color="#F15A24"/>
<stop offset="0.5987" stop-color="#ED1E79"/>
<stop offset="1" stop-color="#9E005D"/>
</linearGradient>
<linearGradient id="paint2_linear" x1="461.203" y1="511.595" x2="693.657" y2="259.809" gradientUnits="userSpaceOnUse">
<stop offset="3.35651e-07" stop-color="#FFFF00"/>
<stop offset="0.5987" stop-color="#00FF00"/>
<stop offset="1" stop-color="#009245"/>
</linearGradient>
</defs>
</svg>
