<svg width="144" height="96" viewBox="0 0 144 96" fill="none" xmlns="http://www.w3.org/2000/svg">
<g opacity="0.5">
<path opacity="0.5" d="M13.7172 27.4711C21.2931 27.4711 27.4345 21.3215 27.4345 13.7355C27.4345 6.14961 21.2931 0 13.7172 0C6.14142 0 0 6.14961 0 13.7355C0 21.3215 6.14142 27.4711 13.7172 27.4711Z" fill="url(#paint0_linear)"/>
<path opacity="0.5" d="M112.631 74.3135C129.956 74.3135 144 60.2514 144 42.9049C144 25.5584 129.956 11.4963 112.631 11.4963C95.3059 11.4963 81.2614 25.5584 81.2614 42.9049C81.2614 60.2514 95.3059 74.3135 112.631 74.3135Z" fill="url(#paint1_linear)"/>
<path opacity="0.5" d="M41.562 95.4772C58.8869 95.4772 72.9314 81.4151 72.9314 64.0687C72.9314 46.7222 58.8869 32.6601 41.562 32.6601C24.2372 32.6601 10.1927 46.7222 10.1927 64.0687C10.1927 81.4151 24.2372 95.4772 41.562 95.4772Z" fill="url(#paint2_linear)"/>
<path d="M85.5248 47.9372C81.4749 50.6937 76.845 52.6637 71.9957 53.6775C69.5762 54.2105 67.0993 54.4692 64.6197 54.5397C62.1401 54.5658 59.6528 54.43 57.1967 54.0302C54.7485 53.6096 52.3343 52.9903 49.9958 52.1595L48.2635 51.4801C47.6913 51.2424 47.1322 50.9706 46.5652 50.7198C45.9956 50.4742 45.4521 50.1737 44.9034 49.8863L44.083 49.45C43.8139 49.2984 43.5526 49.1312 43.2861 48.9744L42.4918 48.4937L42.0947 48.2533L41.7106 47.9946C41.1985 47.6445 40.6864 47.3022 40.1821 46.9443L38.7163 45.8103C38.4681 45.6274 38.2382 45.421 38.003 45.2198L37.3028 44.6137C35.4686 42.9676 33.7729 41.1726 32.2914 39.2208C33.9924 40.9845 35.79 42.6358 37.713 44.1225L38.4367 44.6764C38.6771 44.8593 38.9149 45.05 39.1683 45.2146L40.6681 46.2414L42.2123 47.1977L42.5989 47.4355L42.9961 47.655L43.7904 48.0913C45.9224 49.2227 48.1198 50.2364 50.4086 50.9994C52.6922 51.7701 55.0333 52.3606 57.4083 52.7499C59.7834 53.1628 62.195 53.296 64.604 53.3143L65.5081 53.3091L66.4121 53.2725C67.0156 53.2594 67.614 53.1941 68.2175 53.1549C69.4168 53.0347 70.6187 52.8989 71.8075 52.6872C76.5733 51.8747 81.198 50.2286 85.5248 47.9372Z" fill="black"/>
<path d="M23.1939 4.08899C24.0012 4.8258 24.7276 5.6619 25.3521 6.57638C25.9687 7.49609 26.4808 8.49418 26.8701 9.54453C27.633 11.6505 27.9022 13.9628 27.6017 16.2385L26.3162 16.006C26.7943 13.9785 26.7708 11.8072 26.2483 9.73788C25.9791 8.70582 25.5846 7.69989 25.0751 6.74622C24.5552 5.79515 23.9229 4.90419 23.1939 4.08899Z" fill="black"/>
<path d="M26.8566 29.475C25.9735 25.0829 25.7958 20.5131 26.3549 15.9955L27.643 16.2176C26.6763 20.5209 26.4046 25.0176 26.8566 29.475Z" fill="black"/>
<path d="M63.7519 24.4088C58.0638 29.9088 50.6016 33.0311 42.0656 33.0311C41.7599 33.0311 41.4542 33.0259 41.1511 33.018" stroke="black" stroke-width="2" stroke-miterlimit="10" stroke-linecap="square" stroke-linejoin="bevel"/>
<path d="M63.5062 23.6302L64.5278 22.6583L65.0399 22.1749L65.5729 21.715L66.6415 20.7979L67.752 19.9331C67.9375 19.7894 68.1204 19.6431 68.3085 19.5046L68.8833 19.0996C69.2674 18.8305 69.6463 18.5561 70.0356 18.2949L71.2218 17.5424C71.4204 17.4196 71.6137 17.2863 71.8175 17.1714L72.4289 16.8239C72.8365 16.5939 73.2415 16.3562 73.6543 16.1367L74.9085 15.5044C75.1175 15.4025 75.3239 15.2875 75.5381 15.1935L76.1809 14.9087C76.6094 14.7205 77.0327 14.5246 77.4664 14.3469L78.7754 13.8426C78.9949 13.7616 79.2091 13.6702 79.4312 13.597L80.0975 13.3776C80.5417 13.2339 80.9832 13.0823 81.43 12.9465L82.7809 12.578C83.0056 12.518 83.2303 12.4526 83.4576 12.3978L84.1421 12.2488L85.5086 11.951L86.8882 11.721L87.578 11.6061C87.8079 11.5747 88.0404 11.5512 88.2704 11.5251L89.6578 11.3657C90.1202 11.3239 90.5853 11.303 91.0504 11.2716C91.9779 11.1933 92.9081 11.2089 93.8383 11.1933C95.7064 11.1906 97.5484 11.4545 99.38 11.721C101.212 12.0006 103.035 12.3324 104.849 12.7035C103.025 12.3873 101.193 12.1104 99.3591 11.883C97.5249 11.6688 95.6777 11.4624 93.8409 11.5199C92.9186 11.5617 91.9962 11.5747 91.0817 11.6792C90.6245 11.7237 90.1647 11.7576 89.7074 11.8125L88.3409 12.0085C88.1136 12.0424 87.8863 12.0712 87.659 12.1104L86.9823 12.2436L85.6288 12.5101L84.2911 12.8446L83.6222 13.0118C83.4001 13.0745 83.1832 13.145 82.9611 13.2103L81.6443 13.6127C81.2106 13.759 80.7794 13.921 80.3483 14.0752L79.7004 14.3077C79.4835 14.3861 79.2771 14.4828 79.0628 14.569L77.7956 15.0994C77.3776 15.2875 76.9674 15.4913 76.5519 15.6873L75.9327 15.9825C75.7263 16.0818 75.5277 16.1968 75.3265 16.3039L74.1194 16.9571C73.7222 17.1844 73.3355 17.43 72.9436 17.6652L72.3557 18.0205C72.1598 18.1407 71.9743 18.274 71.7835 18.3994L70.647 19.1675C70.276 19.4341 69.9128 19.7136 69.547 19.9854L68.9983 20.3956C68.818 20.5367 68.6456 20.6856 68.4679 20.8293L67.4123 21.702L66.4012 22.6243L65.8969 23.0868L65.4135 23.5701L64.4494 24.5395L63.9895 25.0019L63.0411 24.077L63.5062 23.6302Z" fill="black"/>
<path d="M22.4776 39.2914C25.0747 37.1881 28.0298 35.4976 31.1965 34.3219C34.3633 33.1435 37.739 32.485 41.1487 32.3753C41.5093 32.3622 41.8124 32.647 41.8228 33.0076C41.8333 33.3682 41.5511 33.6713 41.1905 33.6817C41.1775 33.6817 41.1618 33.6817 41.1487 33.6817C37.8775 33.5746 34.5723 33.9926 31.4029 34.9411C28.2362 35.8895 25.208 37.3632 22.4776 39.2914Z" fill="black"/>
<path d="M119.69 12.3925C118.7 17.4483 116.779 22.295 114.065 26.6271C111.355 30.9591 107.862 34.7764 103.822 37.8413C107.726 34.604 111.021 30.6691 113.503 26.2926C115.988 21.9188 117.652 17.106 118.402 12.1704L119.69 12.3925Z" fill="black"/>
<path d="M101.899 18.2687C102.26 18.2687 102.552 17.9763 102.552 17.6155C102.552 17.2548 102.26 16.9623 101.899 16.9623C101.538 16.9623 101.246 17.2548 101.246 17.6155C101.246 17.9763 101.538 18.2687 101.899 18.2687Z" fill="black"/>
</g>
<defs>
<linearGradient id="paint0_linear" x1="4.01163" y1="23.44" x2="23.4229" y2="4.02876" gradientUnits="userSpaceOnUse">
<stop offset="2.23767e-07" stop-color="#F15A24"/>
<stop offset="0.5987" stop-color="#ED1E79"/>
<stop offset="1" stop-color="#9E005D"/>
</linearGradient>
<linearGradient id="paint1_linear" x1="90.4355" y1="65.0994" x2="134.826" y2="20.7094" gradientUnits="userSpaceOnUse">
<stop offset="3.35651e-07" stop-color="#FFFF00"/>
<stop offset="0.5987" stop-color="#00FF00"/>
<stop offset="1" stop-color="#009245"/>
</linearGradient>
<linearGradient id="paint2_linear" x1="19.3669" y1="86.2632" x2="63.7569" y2="41.8732" gradientUnits="userSpaceOnUse">
<stop offset="2.23767e-07" stop-color="#FF00FF"/>
<stop offset="0.4572" stop-color="#E030EB"/>
<stop offset="1" stop-color="#662D91"/>
</linearGradient>
</defs>
</svg>
