<svg width="249" height="165" viewBox="0 0 249 165" fill="none" xmlns="http://www.w3.org/2000/svg">
<path opacity="0.5" d="M23.7056 47.4744C36.7978 47.4744 47.4112 36.8469 47.4112 23.7372C47.4112 10.6275 36.7978 0 23.7056 0C10.6134 0 0 10.6275 0 23.7372C0 36.8469 10.6134 47.4744 23.7056 47.4744Z" fill="url(#paint0_linear)"/>
<path opacity="0.5" d="M194.643 128.426C224.583 128.426 248.855 104.124 248.855 74.1466C248.855 44.1691 224.583 19.8676 194.643 19.8676C164.703 19.8676 140.432 44.1691 140.432 74.1466C140.432 104.124 164.703 128.426 194.643 128.426Z" fill="url(#paint1_linear)"/>
<path opacity="0.5" d="M71.8257 165C101.766 165 126.037 140.698 126.037 110.721C126.037 80.7435 101.766 56.4419 71.8257 56.4419C41.8856 56.4419 17.6144 80.7435 17.6144 110.721C17.6144 140.698 41.8856 165 71.8257 165Z" fill="url(#paint2_linear)"/>
<path d="M147.801 82.8432C140.802 87.6069 132.801 91.0115 124.421 92.7635C120.239 93.6846 115.959 94.1316 111.674 94.2535C107.389 94.2987 103.09 94.0639 98.8456 93.373C94.6148 92.6461 90.4426 91.5759 86.4013 90.1401L83.4076 88.9661C82.4188 88.5552 81.4525 88.0856 80.4727 87.6521C79.4883 87.2276 78.5491 86.7084 77.6009 86.2117L76.1831 85.4576C75.718 85.1957 75.2665 84.9068 74.8059 84.6358L73.4332 83.805L72.7469 83.3896L72.0831 82.9426C71.1981 82.3375 70.3131 81.746 69.4417 81.1274L66.9085 79.1677C66.4796 78.8517 66.0822 78.495 65.6759 78.1473L64.4657 77.0997C61.296 74.255 58.3655 71.153 55.8053 67.78C58.7448 70.8279 61.8514 73.6816 65.1747 76.2508L66.4254 77.2081C66.8408 77.5242 67.2517 77.8538 67.6897 78.1382L70.2815 79.9128L72.9501 81.5654L73.6184 81.9763L74.3047 82.3556L75.6774 83.1096C79.3619 85.0648 83.1593 86.8168 87.1147 88.1352C91.0612 89.4673 95.1069 90.4877 99.2114 91.1605C103.316 91.8739 107.484 92.1042 111.647 92.1358L113.209 92.1268L114.771 92.0636C115.814 92.041 116.848 91.9281 117.891 91.8604C119.964 91.6527 122.041 91.4179 124.095 91.0522C132.331 89.6479 140.324 86.8032 147.801 82.8432Z" fill="black"/>
<path d="M40.0828 7.06653C41.478 8.33986 42.7333 9.78477 43.8124 11.3651C44.8781 12.9545 45.7631 14.6794 46.4359 16.4946C47.7543 20.134 48.2194 24.13 47.7002 28.0629L45.4786 27.6611C46.3049 24.1571 46.2643 20.4049 45.3612 16.8287C44.8961 15.0452 44.2143 13.3067 43.3338 11.6586C42.4353 10.0151 41.3425 8.47532 40.0828 7.06653Z" fill="black"/>
<path d="M46.4133 50.9378C44.8871 43.3475 44.5801 35.4501 45.5464 27.6431L47.7724 28.0269C46.1018 35.4637 45.6322 43.2346 46.4133 50.9378Z" fill="black"/>
<path d="M110.175 42.1825C100.345 51.6873 87.4488 57.0832 72.6972 57.0832C72.1689 57.0832 71.6406 57.0741 71.1168 57.0606" stroke="black" stroke-width="2" stroke-miterlimit="10" stroke-linecap="square" stroke-linejoin="bevel"/>
<path d="M109.75 40.8369L111.516 39.1571L112.401 38.3218L113.322 37.5271L115.169 35.9422L117.088 34.4476C117.408 34.1993 117.724 33.9464 118.049 33.7071L119.043 33.0072C119.707 32.5422 120.361 32.068 121.034 31.6165L123.084 30.3161C123.427 30.1039 123.761 29.8736 124.113 29.6749L125.17 29.0744C125.874 28.677 126.574 28.2661 127.288 27.8868L129.455 26.7941C129.816 26.618 130.173 26.4193 130.543 26.2568L131.654 25.7646C132.395 25.4395 133.126 25.1009 133.876 24.7938L136.138 23.9223C136.517 23.7824 136.887 23.6243 137.271 23.4979L138.423 23.1186C139.19 22.8703 139.953 22.6084 140.725 22.3736L143.06 21.7369C143.448 21.6331 143.837 21.5202 144.229 21.4254L145.412 21.168L147.774 20.6532L150.158 20.2559L151.35 20.0572C151.747 20.003 152.149 19.9624 152.547 19.9172L154.944 19.6418C155.744 19.5696 156.547 19.5334 157.351 19.4792C158.954 19.3438 160.561 19.3709 162.169 19.3438C165.397 19.3393 168.581 19.7953 171.746 20.2559C174.911 20.739 178.063 21.3125 181.197 21.9537C178.045 21.4073 174.88 20.9287 171.71 20.5358C168.54 20.1656 165.348 19.8089 162.173 19.9082C160.579 19.9804 158.986 20.003 157.405 20.1836C156.615 20.2604 155.82 20.3191 155.03 20.4139L152.669 20.7526C152.276 20.8113 151.883 20.8609 151.49 20.9287L150.321 21.159L147.982 21.6195L145.67 22.1975L144.514 22.4865C144.13 22.5948 143.755 22.7168 143.371 22.8296L141.096 23.525C140.346 23.7779 139.601 24.0578 138.856 24.3242L137.736 24.7261C137.362 24.8615 137.005 25.0286 136.635 25.1776L134.445 26.0942C133.722 26.4193 133.013 26.7715 132.295 27.1102L131.225 27.6204C130.868 27.792 130.525 27.9907 130.178 28.1758L128.092 29.3047C127.405 29.6975 126.737 30.1219 126.06 30.5283L125.044 31.1424C124.705 31.3501 124.384 31.5804 124.055 31.7971L122.091 33.1246C121.449 33.5852 120.822 34.0683 120.19 34.5379L119.241 35.2469C118.93 35.4907 118.632 35.7481 118.325 35.9964L116.501 37.5045L114.753 39.0984L113.882 39.8977L113.046 40.733L111.38 42.4082L110.585 43.2074L108.946 41.609L109.75 40.8369Z" fill="black"/>
<path d="M38.8456 67.9019C43.3338 64.267 48.4407 61.3456 53.9133 59.3137C59.3859 57.2772 65.2198 56.1394 71.1123 55.9497C71.7354 55.9271 72.2592 56.4193 72.2773 57.0424C72.2953 57.6656 71.8076 58.1893 71.1845 58.2074C71.162 58.2074 71.1349 58.2074 71.1123 58.2074C65.4591 58.0223 59.7471 58.7447 54.27 60.3838C48.7974 62.0229 43.5641 64.5695 38.8456 67.9019Z" fill="black"/>
<path d="M206.844 21.4163C205.132 30.1535 201.814 38.5295 197.122 46.0159C192.44 53.5024 186.403 60.0993 179.422 65.3958C186.168 59.8013 191.862 53.0012 196.151 45.4379C200.445 37.8792 203.322 29.562 204.618 21.0325L206.844 21.4163Z" fill="black"/>
<path d="M176.099 31.5713C176.722 31.5713 177.228 31.0659 177.228 30.4424C177.228 29.819 176.722 29.3136 176.099 29.3136C175.475 29.3136 174.97 29.819 174.97 30.4424C174.97 31.0659 175.475 31.5713 176.099 31.5713Z" fill="black"/>
<defs>
<linearGradient id="paint0_linear" x1="6.93274" y1="40.5081" x2="40.4785" y2="6.96235" gradientUnits="userSpaceOnUse">
<stop offset="2.23767e-07" stop-color="#F15A24"/>
<stop offset="0.5987" stop-color="#ED1E79"/>
<stop offset="1" stop-color="#9E005D"/>
</linearGradient>
<linearGradient id="paint1_linear" x1="156.286" y1="112.502" x2="233" y2="35.7892" gradientUnits="userSpaceOnUse">
<stop offset="3.35651e-07" stop-color="#FFFF00"/>
<stop offset="0.5987" stop-color="#00FF00"/>
<stop offset="1" stop-color="#009245"/>
</linearGradient>
<linearGradient id="paint2_linear" x1="33.4689" y1="149.077" x2="110.182" y2="72.3636" gradientUnits="userSpaceOnUse">
<stop offset="2.23767e-07" stop-color="#FF00FF"/>
<stop offset="0.4572" stop-color="#E030EB"/>
<stop offset="1" stop-color="#662D91"/>
</linearGradient>
</defs>
</svg>
